# xmcd
#
# Track frame offsets:
#	150
#	19379
#	35132
#	53808
#	69917
#	82010
#	100656
#	123283
#	140364
#	154992
#	167715
#	186741
#
# Disc length: 2697 seconds
#
# Revision: 0
# Processed by: cddbd v1.5.2PL0 Copyright (c) Steve Scherf et al.
# Submitted via: dBpowerAMP V4.0
#
DISCID=a80a870c
DTITLE=Big Jim Adam and John Stilwagen - Back In My Hometown
DYEAR=2009
DGENRE=Blues
TTITLE0=Biscuits and Gravy
TTITLE1=Run Little Jimbo
TTITLE2=Back In My Hometown
TTITLE3=Lonely In Love
TTITLE4=Tabasco's Sauce
TTITLE5=Paper Thin
TTITLE6=All Things Come With A Price
TTITLE7=Open Door Policy
TTITLE8=Feets Too Big
TTITLE9=That's What I'm Talkin' Bout
TTITLE10=Almost Home
TTITLE11=Jesus Loves Me
EXTD=
EXTT0=
EXTT1=
EXTT2=
EXTT3=
EXTT4=
EXTT5=
EXTT6=
EXTT7=
EXTT8=
EXTT9=
EXTT10=
EXTT11=
PLAYORDER=
